<svg width="70" height="60" viewBox="0 0 70 60" fill="none" xmlns="http://www.w3.org/2000/svg">
<rect width="10" height="10" rx="2" fill="white"/>
<rect x="10" y="10" width="10" height="10" rx="2" fill="white"/>
<rect x="60" width="10" height="10" rx="2" fill="white"/>
<rect x="50" y="25" width="10" height="5" rx="2" fill="white"/>
<rect x="40" y="25" width="10" height="5" rx="2" fill="white"/>
<rect x="10" y="25" width="10" height="5" rx="2" fill="white"/>
<rect x="20" y="22" width="10" height="10" rx="2" fill="white"/>
<rect x="30" y="10" width="10" height="10" rx="2" fill="white"/>
<rect x="50" y="10" width="10" height="10" rx="2" fill="white"/>
<rect x="40" width="10" height="10" rx="2" fill="white"/>
<rect x="20" y="50" width="10" height="10" rx="2" fill="white"/>
<rect x="10" y="40" width="10" height="10" rx="2" fill="white"/>
<rect x="30" y="50" width="10" height="10" rx="2" fill="white"/>
<rect x="40" y="50" width="10" height="10" rx="2" fill="white"/>
<rect x="50" y="40" width="10" height="10" rx="2" fill="white"/>
<rect x="20" width="10" height="10" rx="2" fill="white"/>
</svg>
